<svg id="Iconly_Light-Outline_Notification" data-name="Iconly/Light-Outline/Notification" xmlns="http://www.w3.org/2000/svg" width="15.782" height="18.344" viewBox="0 0 15.782 18.344">
  <g id="Notification" transform="translate(0 0)">
    <path id="Combined-Shape" d="M6.249,16.3a2.153,2.153,0,0,0,1.6.763h0a2.16,2.16,0,0,0,1.6-.764.64.64,0,0,1,.951.857,3.426,3.426,0,0,1-2.555,1.187h0A3.416,3.416,0,0,1,5.3,17.156a.64.64,0,0,1,.951-.855ZM7.89,0a6.124,6.124,0,0,1,6.34,5.712,4.365,4.365,0,0,0,.744,2.659,4.632,4.632,0,0,1,.808,2.7c-.3,3.453-3.9,3.734-7.892,3.734S.294,14.52,0,11.121A4.673,4.673,0,0,1,.806,8.371l.134-.225a4.279,4.279,0,0,0,.61-2.433A6.124,6.124,0,0,1,7.89,0Zm0,1.28a4.894,4.894,0,0,0-5.06,4.432A5.563,5.563,0,0,1,1.9,9.029a3.373,3.373,0,0,0-.625,2.037c.142,1.609,1.2,2.455,6.612,2.455,5.378,0,6.473-.883,6.615-2.51a3.339,3.339,0,0,0-.627-1.982,5.563,5.563,0,0,1-.927-3.317A4.894,4.894,0,0,0,7.89,1.28Z" transform="translate(0)" fill-rule="evenodd"/>
  </g>
</svg>
