<svg xmlns="http://www.w3.org/2000/svg" width="91.925" height="39.278" viewBox="0 0 91.925 39.278">
  <g id="Сгруппировать_42" data-name="Сгруппировать 42" transform="translate(-205.194 -335.499)">
    <rect id="Прямоугольник_252" data-name="Прямоугольник 252" width="91.925" height="39.278" rx="18" transform="translate(205.194 335.499)" fill="#fff"/>
    <text id="Call" transform="translate(253.12 359.638)" font-size="14" font-family="Urbanist" font-weight="500"><tspan x="0" y="0">Call</tspan></text>
    <g id="Сгруппировать_36" data-name="Сгруппировать 36" transform="translate(-382.977 -268.707)">
      <rect id="Прямоугольник_208" data-name="Прямоугольник 208" width="24.494" height="24.144" rx="12.072" transform="translate(599.977 611.772)" fill="#fe662f"/>
    </g>
    <g id="Iconly_Bulk_Call" data-name="Iconly/Bulk/Call" transform="translate(219.741 345.367)">
      <g id="Call-2" data-name="Call" transform="translate(2.5 2.5)">
        <path id="Stroke-1" d="M6.654,7.347c2.939,2.938,3.605-.461,5.476,1.409,1.8,1.8,2.841,2.165.555,4.45-.286.23-2.105,3-8.5-3.392S.561,1.6.791,1.314C3.082-.977,3.437.066,5.241,1.869,7.112,3.74,3.715,4.409,6.654,7.347Z" transform="translate(0 0)" fill="#fff" fill-rule="evenodd"/>
      </g>
    </g>
  </g>
</svg>
