<svg xmlns="http://www.w3.org/2000/svg" width="22.904" height="24.14" viewBox="0 0 22.904 24.14">
  <g id="Iconly_Light_Home" data-name="Iconly/Light/Home" transform="translate(-1.5 -0.865)">
    <g id="Home" transform="translate(2.5 2)">
      <path id="Контур_294" data-name="Контур 294" d="M7.324,20.653V17.279a1.569,1.569,0,0,1,1.566-1.561h3.175a1.569,1.569,0,0,1,1.577,1.561h0v3.385A1.348,1.348,0,0,0,14.966,22h2.117A3.8,3.8,0,0,0,20.9,18.222h0v-9.6a2.684,2.684,0,0,0-1.058-2.1L12.606.754a3.5,3.5,0,0,0-4.34,0L1.058,6.538A2.663,2.663,0,0,0,0,8.634v9.588A3.8,3.8,0,0,0,3.821,22H5.938A1.359,1.359,0,0,0,7.3,20.653h0" transform="translate(0 0)" fill="none" stroke="#000" stroke-linecap="round" stroke-linejoin="round" stroke-width="2" fill-rule="evenodd"/>
    </g>
  </g>
</svg>
