<svg xmlns="http://www.w3.org/2000/svg" width="17.064" height="15.651" viewBox="0 0 17.064 15.651">
  <path id="Heart" d="M10.782,18.479l-.256-.111C6.507,16.585,2.233,13.087,2.25,8.6a5.569,5.569,0,0,1,3.822-5.52,4.277,4.277,0,0,1,4.71,1.229,4.277,4.277,0,0,1,4.71-1.229,5.579,5.579,0,0,1,3.822,5.529c.026,4.479-4.257,7.977-8.276,9.761ZM7.582,4.1a3.569,3.569,0,0,0-1.118.188A4.349,4.349,0,0,0,3.53,8.607c-.017,3.771,3.839,6.885,7.252,8.464,3.413-1.578,7.269-4.693,7.252-8.464A4.367,4.367,0,0,0,15.1,4.29a3.116,3.116,0,0,0-3.788,1.4l-.529.751-.529-.751a3.214,3.214,0,0,0-2.67-1.6Z" transform="translate(-2.25 -2.828)"/>
</svg>
