<svg xmlns="http://www.w3.org/2000/svg" width="31" height="44" viewBox="0 0 31 44">
  <g id="Сгруппировать_38" data-name="Сгруппировать 38" transform="translate(-397 -437)">
    <rect id="Прямоугольник_262" data-name="Прямоугольник 262" width="31" height="44" transform="translate(397 437)" fill="none"/>
    <path id="Location" d="M18.358,22.156a4.835,4.835,0,1,1,4.835-4.835A4.841,4.841,0,0,1,18.358,22.156ZM28.278,6.53A13.779,13.779,0,0,0,18.358,2.2,13.783,13.783,0,0,0,8.432,6.532,14.493,14.493,0,0,0,4.294,16.981c.334,10.786,13.039,19.185,13.581,19.536l.475.309.481-.3c.541-.343,13.254-8.538,13.59-19.543A14.5,14.5,0,0,0,28.278,6.53Z" transform="translate(394.349 434.906)" fill="#d64815" fill-rule="evenodd"/>
  </g>
</svg>
