<svg xmlns="http://www.w3.org/2000/svg" width="11.111" height="10" viewBox="0 0 11.111 10">
  <g id="Iconly_Bold_2-User" data-name="Iconly/Bold/2-User" transform="translate(-2 -3)">
    <g id="_2-User" data-name="2-User" transform="translate(2 3)">
      <path id="_2-Friends" data-name="2-Friends" d="M4.083,6.588c2.214,0,4.083.352,4.083,1.713S6.285,10,4.083,10h-.15C1.785,9.983,0,9.617,0,8.287,0,6.928,1.881,6.588,4.083,6.588Zm3.456-.819a10.2,10.2,0,0,1,2.082.177,1.772,1.772,0,0,1,1.368.815,1.17,1.17,0,0,1,0,1.043c-.3.624-1.248.825-1.618.876a.115.115,0,0,1-.13-.129,2.781,2.781,0,0,0-1.7-2.737.03.03,0,0,1-.018-.03A.024.024,0,0,1,7.539,5.768ZM4.083,0a2.664,2.664,0,0,1,2.7,2.646,2.664,2.664,0,0,1-2.7,2.646,2.665,2.665,0,0,1-2.7-2.646A2.665,2.665,0,0,1,4.083,0Zm3.6.442a2.247,2.247,0,0,1,2.2,2.82A2.247,2.247,0,0,1,7.621,4.9a2.2,2.2,0,0,1-.311-.029.1.1,0,0,1-.068-.153A3.573,3.573,0,0,0,7.189.587a.062.062,0,0,1-.01-.069A.082.082,0,0,1,7.231.487,2.311,2.311,0,0,1,7.685.442Z" transform="translate(0 0)" fill="#313131"/>
    </g>
  </g>
</svg>
