<svg xmlns="http://www.w3.org/2000/svg" width="44" height="44" viewBox="0 0 44 44">
  <g id="Сгруппировать_45" data-name="Сгруппировать 45" transform="translate(-714 -651)">
    <rect id="Прямоугольник_270" data-name="Прямоугольник 270" width="44" height="44" rx="22" transform="translate(714 651)" fill="#fff" opacity="0.693"/>
    <g id="Iconly_Bold_Location" data-name="Iconly/Bold/Location" transform="translate(725.392 662.049)">
      <g id="Location" transform="translate(3.5 2)">
        <path id="Контур_300" data-name="Контур 300" d="M7.6,0a7.548,7.548,0,0,1,7.614,7.445,9.279,9.279,0,0,1-2,5.633,19.75,19.75,0,0,1-4.96,4.6,1.071,1.071,0,0,1-1.305,0A19.369,19.369,0,0,1,2,13.078,9.274,9.274,0,0,1,0,7.445,7.545,7.545,0,0,1,7.6,0Zm0,5.171A2.518,2.518,0,0,0,5.1,7.677a2.512,2.512,0,0,0,5.023,0A2.528,2.528,0,0,0,7.6,5.171Z"/>
      </g>
    </g>
  </g>
</svg>
