<svg xmlns="http://www.w3.org/2000/svg" width="23.945" height="23.945" viewBox="0 0 23.945 23.945">
  <g id="Сгруппировать_34" data-name="Сгруппировать 34" transform="translate(-158 -368.055)">
    <g id="Iconly_Light-Outline_Arrow---Left-Square" data-name="Iconly/Light-Outline/Arrow---Left-Square" transform="translate(156 366.055)">
      <g id="Arrow---Left-Square" transform="translate(25.945 25.945) rotate(180)">
        <path id="Combined-Shape" d="M16.862,23.945c4.236,0,7.083-2.725,7.083-6.783V6.784C23.945,2.726,21.1,0,16.862,0H7.083C2.847,0,0,2.726,0,6.784V17.163c0,4.058,2.847,6.783,7.083,6.783Zm0-1.8H7.083c-3.212,0-5.287-1.958-5.287-4.987V6.784C1.8,3.755,3.871,1.8,7.083,1.8h9.779c3.212,0,5.287,1.959,5.287,4.988V17.163C22.149,20.192,20.075,22.149,16.862,22.149Z" fill-rule="evenodd"/>
      </g>
    </g>
    <path id="Combined-Shape-2" data-name="Combined-Shape" d="M10.655,15.226l3.762-3.746a.756.756,0,0,0,.078-.088l-.071.082a.737.737,0,0,0,.094-.114c.012-.018.024-.038.034-.057s.017-.031.024-.048.013-.031.019-.047.012-.031.016-.048a.763.763,0,0,0,.031-.178c0-.014,0-.027,0-.04l0-.039,0-.063a.746.746,0,0,0-.025-.116c0-.016-.01-.032-.016-.048s-.013-.032-.02-.047-.015-.033-.024-.048-.023-.038-.035-.057-.015-.022-.023-.032a.808.808,0,0,0-.07-.081h0L10.655,6.656A.751.751,0,0,0,9.6,7.72l2.48,2.47H5.711a.751.751,0,1,0,0,1.5h6.365L9.6,14.163a.751.751,0,0,0,1.059,1.063Z" transform="translate(182.14 383.333) rotate(135)" fill-rule="evenodd"/>
    <path id="Combined-Shape-3" data-name="Combined-Shape" d="M10.655,15.226l3.762-3.746a.756.756,0,0,0,.078-.088l-.071.082a.737.737,0,0,0,.094-.114c.012-.018.024-.038.034-.057s.017-.031.024-.048.013-.031.019-.047.012-.031.016-.048a.763.763,0,0,0,.031-.178c0-.014,0-.027,0-.04l0-.039,0-.063a.746.746,0,0,0-.025-.116c0-.016-.01-.032-.016-.048s-.013-.032-.02-.047-.015-.033-.024-.048-.023-.038-.035-.057-.015-.022-.023-.032a.808.808,0,0,0-.07-.081h0L10.655,6.656A.751.751,0,0,0,9.6,7.72l2.48,2.47H5.711a.751.751,0,1,0,0,1.5h6.365L9.6,14.163a.751.751,0,0,0,1.059,1.063Z" transform="translate(157.805 376.722) rotate(-45)" fill-rule="evenodd"/>
  </g>
</svg>
